<svg width="103" height="80" viewBox="0 0 103 80" fill="none" xmlns="http://www.w3.org/2000/svg">
<line x1="2" y1="-2" x2="64.1231" y2="-2" transform="matrix(0.63238 0.774658 -0.741079 0.671418 2.74017 27.8098)" stroke="white" stroke-width="4" stroke-linecap="round"/>
<line x1="2" y1="-2" x2="64.1231" y2="-2" transform="matrix(0.63238 -0.774658 0.741079 0.671418 2.74017 79.0327)" stroke="white" stroke-width="4" stroke-linecap="round"/>
<mask id="path-3-outside-1_16_136" maskUnits="userSpaceOnUse" x="49.4724" y="1.14941" width="53" height="78" fill="black">
<rect fill="white" x="49.4724" y="1.14941" width="53" height="78"/>
<path d="M94.0835 78.1494H50.6264V76.7822L70.4507 55.7861C75.1382 50.7731 78.7189 45.7926 81.1928 40.8447C83.7319 35.8968 85.0014 31.2419 85.0014 26.8799C85.0014 22.1273 83.5691 18.3187 80.7046 15.4541C77.9051 12.5244 74.0639 11.0596 69.1811 11.0596C67.228 11.0596 65.5027 11.32 64.0053 11.8408C62.5079 12.2965 61.1408 13.1104 59.9038 14.2822C58.6668 15.389 57.4949 16.8538 56.3882 18.6768C55.2814 20.4997 54.1746 22.7783 53.0678 25.5127L50.7241 25.0244C51.1798 23.0713 51.6355 21.346 52.0913 19.8486C52.6121 18.3512 53.1329 17.0166 53.6538 15.8447C54.2397 14.6729 54.8582 13.5986 55.5092 12.6221C56.1603 11.6455 56.9415 10.6689 57.853 9.69238C59.9363 7.47884 62.3452 5.78613 65.0796 4.61426C67.879 3.44238 70.8087 2.85645 73.8686 2.85645C76.7983 2.85645 79.5001 3.37728 81.9741 4.41895C84.5132 5.39551 86.6941 6.7627 88.5171 8.52051C90.4051 10.2783 91.8699 12.3617 92.9116 14.7705C94.0184 17.1143 94.5717 19.6533 94.5717 22.3877C94.5717 26.8799 93.3999 31.307 91.0561 35.6689C88.7775 40.0309 85.1967 44.8486 80.3139 50.1221L61.5639 69.6533H88.1264C89.3634 69.6533 90.4376 69.5882 91.3491 69.458C92.2605 69.2627 93.0743 68.9046 93.7905 68.3838C94.5717 67.863 95.3204 67.1143 96.0366 66.1377C96.8178 65.1611 97.7293 63.859 98.771 62.2314L100.236 62.915L94.0835 78.1494Z"/>
</mask>
<path d="M94.0835 78.1494H50.6264V76.7822L70.4507 55.7861C75.1382 50.7731 78.7189 45.7926 81.1928 40.8447C83.7319 35.8968 85.0014 31.2419 85.0014 26.8799C85.0014 22.1273 83.5691 18.3187 80.7046 15.4541C77.9051 12.5244 74.0639 11.0596 69.1811 11.0596C67.228 11.0596 65.5027 11.32 64.0053 11.8408C62.5079 12.2965 61.1408 13.1104 59.9038 14.2822C58.6668 15.389 57.4949 16.8538 56.3882 18.6768C55.2814 20.4997 54.1746 22.7783 53.0678 25.5127L50.7241 25.0244C51.1798 23.0713 51.6355 21.346 52.0913 19.8486C52.6121 18.3512 53.1329 17.0166 53.6538 15.8447C54.2397 14.6729 54.8582 13.5986 55.5092 12.6221C56.1603 11.6455 56.9415 10.6689 57.853 9.69238C59.9363 7.47884 62.3452 5.78613 65.0796 4.61426C67.879 3.44238 70.8087 2.85645 73.8686 2.85645C76.7983 2.85645 79.5001 3.37728 81.9741 4.41895C84.5132 5.39551 86.6941 6.7627 88.5171 8.52051C90.4051 10.2783 91.8699 12.3617 92.9116 14.7705C94.0184 17.1143 94.5717 19.6533 94.5717 22.3877C94.5717 26.8799 93.3999 31.307 91.0561 35.6689C88.7775 40.0309 85.1967 44.8486 80.3139 50.1221L61.5639 69.6533H88.1264C89.3634 69.6533 90.4376 69.5882 91.3491 69.458C92.2605 69.2627 93.0743 68.9046 93.7905 68.3838C94.5717 67.863 95.3204 67.1143 96.0366 66.1377C96.8178 65.1611 97.7293 63.859 98.771 62.2314L100.236 62.915L94.0835 78.1494Z" fill="white"/>
<path d="M94.0835 78.1494V79.1494H94.7581L95.0107 78.5239L94.0835 78.1494ZM50.6264 78.1494H49.6264V79.1494H50.6264V78.1494ZM50.6264 76.7822L49.8993 76.0957L49.6264 76.3847V76.7822H50.6264ZM70.4507 55.7861L71.1778 56.4727L71.1811 56.4691L70.4507 55.7861ZM81.1928 40.8447L80.3031 40.3881L80.2984 40.3975L81.1928 40.8447ZM80.7046 15.4541L79.9816 16.145L79.9894 16.1532L79.9975 16.1612L80.7046 15.4541ZM64.0053 11.8408L64.2965 12.7975L64.3153 12.7918L64.3339 12.7853L64.0053 11.8408ZM59.9038 14.2822L60.5706 15.0275L60.5812 15.018L60.5915 15.0082L59.9038 14.2822ZM53.0678 25.5127L52.8639 26.4917L53.6815 26.662L53.9948 25.8879L53.0678 25.5127ZM50.7241 25.0244L49.7502 24.7972L49.5175 25.7945L50.5201 26.0034L50.7241 25.0244ZM52.0913 19.8486L51.1468 19.5201L51.1403 19.5387L51.1346 19.5575L52.0913 19.8486ZM53.6538 15.8447L52.7593 15.3975L52.7492 15.4178L52.74 15.4386L53.6538 15.8447ZM55.5092 12.6221L54.6772 12.0674L55.5092 12.6221ZM57.853 9.69238L57.1248 9.00701L57.1219 9.01006L57.853 9.69238ZM65.0796 4.61426L64.6934 3.69178L64.6856 3.69511L65.0796 4.61426ZM81.9741 4.41895L81.586 5.34058L81.6005 5.34666L81.6151 5.35229L81.9741 4.41895ZM88.5171 8.52051L87.8229 9.24035L87.8292 9.24643L87.8356 9.2524L88.5171 8.52051ZM92.9116 14.7705L91.9937 15.1674L92.0003 15.1826L92.0073 15.1975L92.9116 14.7705ZM91.0561 35.6689L90.1752 35.1956L90.1698 35.2059L91.0561 35.6689ZM80.3139 50.1221L81.0353 50.8146L81.0416 50.8081L81.0477 50.8015L80.3139 50.1221ZM61.5639 69.6533L60.8425 68.9608L59.2177 70.6533H61.5639V69.6533ZM91.3491 69.458L91.4905 70.448L91.5248 70.4431L91.5586 70.4358L91.3491 69.458ZM93.7905 68.3838L93.2358 67.5517L93.2188 67.5631L93.2023 67.5751L93.7905 68.3838ZM96.0366 66.1377L95.2557 65.513L95.2426 65.5294L95.2302 65.5463L96.0366 66.1377ZM98.771 62.2314L99.1938 61.3253L98.4006 60.9551L97.9287 61.6924L98.771 62.2314ZM100.236 62.915L101.163 63.2895L101.518 62.41L100.659 62.0089L100.236 62.915ZM94.0835 77.1494H50.6264V79.1494H94.0835V77.1494ZM51.6264 78.1494V76.7822H49.6264V78.1494H51.6264ZM51.3535 77.4688L71.1778 56.4727L69.7235 55.0996L49.8993 76.0957L51.3535 77.4688ZM71.1811 56.4691C75.9192 51.402 79.5614 46.3437 82.0873 41.2919L80.2984 40.3975C77.8764 45.2416 74.3571 50.1443 69.7202 55.1031L71.1811 56.4691ZM82.0825 41.3013C84.6747 36.2499 86.0014 31.4383 86.0014 26.8799H84.0014C84.0014 31.0455 82.7891 35.5438 80.3031 40.3882L82.0825 41.3013ZM86.0014 26.8799C86.0014 21.9116 84.4961 17.8314 81.4117 14.747L79.9975 16.1612C82.6422 18.8059 84.0014 22.343 84.0014 26.8799H86.0014ZM81.4275 14.7632C78.4015 11.5964 74.2768 10.0596 69.1811 10.0596V12.0596C73.8511 12.0596 77.4087 13.4524 79.9816 16.145L81.4275 14.7632ZM69.1811 10.0596C67.1411 10.0596 65.3011 10.3314 63.6768 10.8963L64.3339 12.7853C65.7044 12.3086 67.3149 12.0596 69.1811 12.0596V10.0596ZM63.7142 10.8841C62.0557 11.3889 60.5554 12.2874 59.216 13.5563L60.5915 15.0082C61.7261 13.9333 62.9602 13.2042 64.2965 12.7975L63.7142 10.8841ZM59.237 13.537C57.9091 14.7251 56.6775 16.2733 55.5334 18.1578L57.2429 19.1957C58.3123 17.4344 59.4245 16.0529 60.5706 15.0275L59.237 13.537ZM55.5334 18.1578C54.3904 20.0403 53.2608 22.3707 52.1409 25.1375L53.9948 25.8879C55.0884 23.1859 56.1723 20.9591 57.2429 19.1957L55.5334 18.1578ZM53.2718 24.5337L50.928 24.0454L50.5201 26.0034L52.8639 26.4917L53.2718 24.5337ZM51.6979 25.2516C52.15 23.3144 52.6001 21.6112 53.048 20.1398L51.1346 19.5575C50.671 21.0809 50.2097 22.8282 49.7502 24.7972L51.6979 25.2516ZM53.0358 20.1772C53.5495 18.7002 54.0603 17.3922 54.5676 16.2509L52.74 15.4386C52.2056 16.641 51.6747 18.0023 51.1468 19.5201L53.0358 20.1772ZM54.5482 16.2919C55.1177 15.153 55.7157 14.1151 56.3413 13.1768L54.6772 12.0674C54.0007 13.0821 53.3617 14.1928 52.7593 15.3975L54.5482 16.2919ZM56.3413 13.1768C56.9584 12.2511 57.7047 11.3169 58.5841 10.3747L57.1219 9.01006C56.1784 10.021 55.3622 11.0399 54.6772 12.0674L56.3413 13.1768ZM58.5812 10.3777C60.5725 8.26203 62.8682 6.64995 65.4735 5.5334L64.6856 3.69511C61.8222 4.92232 59.3002 6.69565 57.1248 9.00702L58.5812 10.3777ZM65.4657 5.5367C68.1418 4.41645 70.9402 3.85645 73.8686 3.85645V1.85645C70.6773 1.85645 67.6162 2.46831 64.6934 3.69182L65.4657 5.5367ZM73.8686 3.85645C76.6773 3.85645 79.2457 4.35519 81.586 5.34058L82.3621 3.49731C79.7545 2.39937 76.9193 1.85645 73.8686 1.85645V3.85645ZM81.6151 5.35229C84.0387 6.28443 86.1033 7.58214 87.8229 9.24035L89.2112 7.80066C87.285 5.94325 84.9876 4.50658 82.3331 3.4856L81.6151 5.35229ZM87.8356 9.2524C89.6208 10.9144 91.0059 12.8831 91.9937 15.1674L93.8294 14.3736C92.7339 11.8402 91.1894 9.64222 89.1985 7.78861L87.8356 9.2524ZM92.0073 15.1975C93.0476 17.4004 93.5717 19.7927 93.5717 22.3877H95.5717C95.5717 19.514 94.9891 16.8281 93.8158 14.3435L92.0073 15.1975ZM93.5717 22.3877C93.5717 26.6983 92.449 30.964 90.1752 35.1956L91.937 36.1423C94.3508 31.65 95.5717 27.0615 95.5717 22.3877H93.5717ZM90.1698 35.2059C87.9463 39.4623 84.4277 44.2073 79.5802 49.4427L81.0477 50.8015C85.9658 45.49 89.6087 40.5995 91.9425 36.132L90.1698 35.2059ZM79.5925 49.4295L60.8425 68.9608L62.2853 70.3459L81.0353 50.8146L79.5925 49.4295ZM61.5639 70.6533H88.1264V68.6533H61.5639V70.6533ZM88.1264 70.6533C89.3958 70.6533 90.5194 70.5867 91.4905 70.448L91.2077 68.4681C90.3558 68.5898 89.331 68.6533 88.1264 68.6533V70.6533ZM91.5586 70.4358C92.5994 70.2128 93.5436 69.7999 94.3787 69.1925L93.2023 67.5751C92.6051 68.0094 91.9217 68.3126 91.1396 68.4802L91.5586 70.4358ZM94.3452 69.2158C95.2474 68.6144 96.0767 67.774 96.843 66.7291L95.2302 65.5463C94.5642 66.4545 93.8961 67.1115 93.2358 67.5517L94.3452 69.2158ZM96.8175 66.7624C97.6291 65.7479 98.5616 64.4136 99.6132 62.7705L97.9287 61.6924C96.897 63.3045 96.0066 64.5744 95.2557 65.513L96.8175 66.7624ZM98.3481 63.1376L99.8129 63.8212L100.659 62.0089L99.1938 61.3253L98.3481 63.1376ZM99.3086 62.5406L93.1562 77.7749L95.0107 78.5239L101.163 63.2895L99.3086 62.5406Z" fill="white" mask="url(#path-3-outside-1_16_136)"/>
</svg>
