<svg width="98" height="103" viewBox="0 0 98 103" fill="none" xmlns="http://www.w3.org/2000/svg">
<rect x="1.98032" y="21.6738" width="74.7953" height="78.9565" fill="black" stroke="white" stroke-width="3"/>
<path d="M97.7244 21.1984C97.7244 32.5142 89.0169 41.6875 78.2756 41.6875C67.5343 41.6875 58.8268 32.5142 58.8268 21.1984C58.8268 9.88252 67.5343 0.709229 78.2756 0.709229C89.0169 0.709229 97.7244 9.88252 97.7244 21.1984Z" fill="black"/>
<path d="M75.56 14.6037L78.2756 5.79875L80.9912 14.6037C81.3145 15.6518 82.2833 16.3669 83.3802 16.3669H92.3449L84.9821 22.0023C84.1512 22.6383 83.8043 23.7245 84.1127 24.7244L86.8899 33.729L79.7951 28.2986C78.8984 27.6122 77.6528 27.6122 76.7561 28.2986L69.6613 33.729L72.4385 24.7244C72.7469 23.7245 72.4 22.6383 71.5691 22.0023L64.2063 16.3669H73.171C74.2679 16.3669 75.2367 15.6519 75.56 14.6037ZM68.4183 34.6804C68.4185 34.6803 68.4187 34.6801 68.4189 34.6799L68.4183 34.6804Z" fill="black" stroke="white" stroke-width="3"/>
<path d="M1.45276 73.4456L24.3051 52.4441" stroke="white" stroke-width="3" stroke-linecap="round"/>
<path d="M24.7914 51.9321L38.4055 68.3234" stroke="white" stroke-width="3" stroke-linecap="round"/>
<path d="M38.4055 68.3235L67.5787 43.7365" stroke="white" stroke-width="3" stroke-linecap="round"/>
<path d="M67.5787 43.7363L76.3307 55.0053" stroke="white" stroke-width="3" stroke-linecap="round"/>
</svg>
