<svg width="255" height="103" viewBox="0 0 255 103" fill="none" xmlns="http://www.w3.org/2000/svg">
<path d="M4.28625 86.874C4.25825 85.978 4.23025 84.998 4.20225 83.934C4.20225 82.842 4.16025 81.708 4.07625 80.532C4.21625 80.504 4.34225 80.49 4.45425 80.49C4.59425 80.49 4.73425 80.49 4.87425 80.49C5.18225 82.394 5.96625 83.85 7.22625 84.858C8.51425 85.838 9.98425 86.328 11.6362 86.328C13.3722 86.328 14.7022 85.824 15.6262 84.816C16.5502 83.808 17.0122 82.506 17.0122 80.91C17.0122 79.65 16.7462 78.586 16.2142 77.718C15.6822 76.822 14.9402 76.024 13.9882 75.324C13.0642 74.596 12.0142 73.868 10.8382 73.14C9.74625 72.44 8.68225 71.712 7.64625 70.956C6.63825 70.172 5.81225 69.276 5.16825 68.268C4.52425 67.26 4.20225 66.042 4.20225 64.614C4.20225 63.13 4.56625 61.828 5.29425 60.708C6.05025 59.588 7.07225 58.72 8.36025 58.104C9.67625 57.46 11.1602 57.138 12.8122 57.138C13.3162 57.138 13.7642 57.166 14.1562 57.222C14.5762 57.278 15.0522 57.334 15.5842 57.39C16.1162 57.446 16.5502 57.488 16.8862 57.516C17.2222 57.544 17.5302 57.558 17.8102 57.558C17.8662 57.558 17.9642 57.558 18.1042 57.558C18.2442 57.558 18.4122 57.544 18.6082 57.516L18.9442 63.48C18.7762 63.508 18.6222 63.536 18.4822 63.564C18.3702 63.564 18.2442 63.564 18.1042 63.564C17.9642 62.668 17.7122 61.87 17.3482 61.17C17.0122 60.47 16.6202 59.924 16.1722 59.532C15.6962 59.112 15.1082 58.804 14.4082 58.608C13.7082 58.412 13.0222 58.314 12.3502 58.314C10.8942 58.314 9.67625 58.748 8.69625 59.616C7.74425 60.456 7.26825 61.66 7.26825 63.228C7.26825 64.376 7.53425 65.37 8.06625 66.21C8.59825 67.022 9.31225 67.778 10.2082 68.478C11.1042 69.15 12.1122 69.85 13.2322 70.578C14.3242 71.278 15.3882 72.048 16.4242 72.888C17.4602 73.7 18.3002 74.652 18.9442 75.744C19.6162 76.808 19.9522 78.11 19.9522 79.65C19.9522 81.022 19.6442 82.31 19.0282 83.514C18.4122 84.69 17.4742 85.656 16.2142 86.412C14.9542 87.14 13.3582 87.504 11.4262 87.504C11.0062 87.504 10.5302 87.476 9.99825 87.42C9.49425 87.364 8.73825 87.28 7.73025 87.168C6.89025 87.056 6.21825 86.986 5.71425 86.958C5.23825 86.902 4.76225 86.874 4.28625 86.874ZM27.6517 87.042C27.6237 86.762 27.6237 86.482 27.6517 86.202C28.6037 86.118 29.2897 86.034 29.7097 85.95C30.1297 85.866 30.3957 85.67 30.5077 85.362C30.6197 85.026 30.6757 84.494 30.6757 83.766V61.212C30.6757 60.344 30.6197 59.728 30.5077 59.364C30.3957 59 30.1297 58.762 29.7097 58.65C29.2897 58.538 28.6037 58.454 27.6517 58.398C27.6237 58.118 27.6237 57.838 27.6517 57.558C28.0717 57.558 28.5757 57.572 29.1637 57.6C29.7517 57.6 30.3397 57.614 30.9277 57.642C31.5157 57.642 31.9917 57.642 32.3557 57.642C32.7197 57.642 33.1957 57.642 33.7837 57.642C34.3717 57.614 34.9597 57.6 35.5477 57.6C36.1637 57.572 36.6537 57.558 37.0177 57.558C37.0457 57.838 37.0457 58.118 37.0177 58.398C36.0657 58.454 35.3797 58.538 34.9597 58.65C34.5397 58.762 34.2737 58.972 34.1617 59.28C34.0777 59.588 34.0357 60.106 34.0357 60.834V71.04H50.7937V61.212C50.7937 60.344 50.7377 59.728 50.6257 59.364C50.5417 59 50.2897 58.762 49.8697 58.65C49.4777 58.538 48.8057 58.454 47.8537 58.398C47.8257 58.118 47.8257 57.838 47.8537 57.558C48.2457 57.558 48.7217 57.572 49.2817 57.6C49.8697 57.6 50.4577 57.614 51.0457 57.642C51.6617 57.642 52.1517 57.642 52.5157 57.642C53.1037 57.642 53.8737 57.628 54.8257 57.6C55.7777 57.572 56.5617 57.558 57.1777 57.558C57.2057 57.838 57.2057 58.118 57.1777 58.398C56.2257 58.454 55.5397 58.538 55.1197 58.65C54.6997 58.762 54.4337 58.972 54.3217 59.28C54.2097 59.588 54.1537 60.106 54.1537 60.834V83.388C54.1537 84.228 54.1957 84.83 54.2797 85.194C54.3917 85.558 54.6577 85.796 55.0777 85.908C55.4977 86.02 56.1977 86.118 57.1777 86.202C57.2057 86.482 57.2057 86.762 57.1777 87.042C56.5617 87.042 55.7637 87.028 54.7837 87C53.8037 86.972 53.0337 86.958 52.4737 86.958C51.9137 86.958 51.1577 86.972 50.2057 87C49.2817 87.028 48.5117 87.042 47.8957 87.042C47.8677 86.762 47.8677 86.482 47.8957 86.202C48.8197 86.118 49.4777 86.034 49.8697 85.95C50.2897 85.866 50.5417 85.67 50.6257 85.362C50.7377 85.026 50.7937 84.494 50.7937 83.766V72.384H34.0357V83.388C34.0357 84.228 34.0777 84.844 34.1617 85.236C34.2737 85.6 34.5397 85.838 34.9597 85.95C35.3797 86.034 36.0657 86.118 37.0177 86.202C37.0457 86.482 37.0457 86.762 37.0177 87.042C36.6257 87.042 36.1217 87.028 35.5057 87C34.9177 87 34.3297 87 33.7417 87C33.1817 86.972 32.7057 86.958 32.3137 86.958C31.9497 86.958 31.4737 86.972 30.8857 87C30.2977 87 29.7097 87 29.1217 87C28.5617 87.028 28.0717 87.042 27.6517 87.042ZM61.4479 87.042C61.4199 86.762 61.4199 86.482 61.4479 86.202C62.3719 86.118 63.0579 86.02 63.5059 85.908C63.9819 85.768 64.3599 85.474 64.6399 85.026C64.9199 84.55 65.2419 83.794 65.6059 82.758L74.9299 57.642C75.1539 57.558 75.4199 57.502 75.7279 57.474C76.0639 57.418 76.3299 57.39 76.5259 57.39L85.9339 83.01C86.2979 83.99 86.5919 84.69 86.8159 85.11C87.0679 85.53 87.4179 85.796 87.8659 85.908C88.3139 86.02 89.0139 86.118 89.9659 86.202C89.9939 86.482 89.9939 86.762 89.9659 87.042C89.2379 87.042 88.4119 87.028 87.4879 87C86.5919 86.972 85.7659 86.958 85.0099 86.958C84.2259 86.958 83.4839 86.972 82.7839 87C82.1119 87.028 81.3839 87.042 80.5999 87.042C80.5719 86.762 80.5719 86.482 80.5999 86.202C81.5799 86.118 82.2239 86.034 82.5319 85.95C82.8679 85.838 83.0359 85.586 83.0359 85.194C83.0359 85.054 83.0079 84.886 82.9519 84.69C82.8959 84.466 82.8119 84.2 82.6999 83.892L79.8019 75.786H69.8059L67.0759 83.43C66.7959 84.186 66.6559 84.732 66.6559 85.068C66.6559 85.516 66.8659 85.796 67.2859 85.908C67.7059 86.02 68.3919 86.118 69.3439 86.202C69.3719 86.482 69.3719 86.762 69.3439 87.042C68.6439 87.042 67.9579 87.028 67.2859 87C66.6419 86.972 65.9699 86.958 65.2699 86.958C64.7099 86.958 64.0799 86.972 63.3799 87C62.7079 87.028 62.0639 87.042 61.4479 87.042ZM70.2679 74.484H79.2979L74.7619 61.842L70.2679 74.484ZM101.94 73.308L100.89 73.224V83.388C100.89 84.228 100.946 84.844 101.058 85.236C101.17 85.6 101.436 85.838 101.856 85.95C102.304 86.034 103.032 86.118 104.04 86.202C104.068 86.482 104.068 86.762 104.04 87.042C103.648 87.042 103.13 87.028 102.486 87C101.87 87 101.254 87 100.638 87C100.05 86.972 99.5595 86.958 99.1675 86.958C98.8035 86.958 98.3135 86.972 97.6975 87C97.1095 87 96.5215 87 95.9335 87C95.3455 87.028 94.8555 87.042 94.4635 87.042C94.4355 86.762 94.4355 86.482 94.4635 86.202C95.4435 86.118 96.1435 86.034 96.5635 85.95C97.0115 85.866 97.2775 85.67 97.3615 85.362C97.4735 85.026 97.5295 84.494 97.5295 83.766V61.17C97.5295 60.33 97.4735 59.728 97.3615 59.364C97.2495 59 96.9695 58.762 96.5215 58.65C96.1015 58.538 95.4155 58.454 94.4635 58.398C94.4355 58.118 94.4355 57.838 94.4635 57.558C94.8555 57.558 95.3455 57.572 95.9335 57.6C96.5495 57.6 97.1515 57.614 97.7395 57.642C98.3555 57.642 98.8455 57.642 99.2095 57.642C99.5735 57.642 100.12 57.642 100.848 57.642C101.576 57.614 102.304 57.6 103.032 57.6C103.76 57.572 104.292 57.558 104.628 57.558C106.224 57.558 107.708 57.796 109.08 58.272C110.452 58.748 111.558 59.518 112.398 60.582C113.266 61.618 113.7 63.018 113.7 64.782C113.7 66.854 113.084 68.534 111.852 69.822C110.62 71.11 108.968 72.076 106.896 72.72V72.846C107.288 73.042 107.652 73.294 107.988 73.602C108.352 73.882 108.758 74.302 109.206 74.862C109.542 75.282 110.018 75.954 110.634 76.878C111.278 77.802 111.95 78.81 112.65 79.902C113.378 80.966 114.036 81.96 114.624 82.884C115.268 83.892 115.814 84.62 116.262 85.068C116.71 85.488 117.2 85.768 117.732 85.908C118.264 86.02 118.978 86.118 119.874 86.202C119.902 86.482 119.902 86.762 119.874 87.042C119.482 87.042 118.978 87.028 118.362 87C117.746 87 117.144 87 116.556 87C115.996 86.972 115.562 86.958 115.254 86.958C114.918 86.958 114.596 86.972 114.288 87C113.98 87 113.672 87 113.364 87C113.056 86.468 112.608 85.74 112.02 84.816C111.432 83.864 110.774 82.828 110.046 81.708C109.318 80.588 108.59 79.496 107.862 78.432C107.162 77.34 106.532 76.416 105.972 75.66C105.496 74.988 105.076 74.498 104.712 74.19C104.348 73.882 103.956 73.672 103.536 73.56C103.144 73.448 102.612 73.364 101.94 73.308ZM100.89 71.964C101.254 72.02 101.576 72.062 101.856 72.09C102.136 72.09 102.402 72.09 102.654 72.09C104.894 72.09 106.686 71.544 108.03 70.452C109.402 69.332 110.088 67.596 110.088 65.244C110.088 63.144 109.514 61.548 108.366 60.456C107.218 59.336 105.524 58.776 103.284 58.776C102.584 58.776 101.786 58.818 100.89 58.902V71.964ZM132.924 73.896C132.448 73.896 132.014 73.882 131.622 73.854C131.23 73.798 130.754 73.7 130.194 73.56V83.388C130.194 84.06 130.208 84.564 130.236 84.9C130.292 85.208 130.418 85.46 130.614 85.656C130.838 85.852 131.146 85.978 131.538 86.034C131.93 86.09 132.602 86.146 133.554 86.202C133.582 86.482 133.582 86.762 133.554 87.042C133.106 87.042 132.56 87.028 131.916 87C131.272 87 130.642 87 130.026 87C129.41 86.972 128.906 86.958 128.514 86.958C127.898 86.958 127.114 86.972 126.162 87C125.21 87.028 124.412 87.042 123.768 87.042C123.74 86.762 123.74 86.482 123.768 86.202C124.748 86.118 125.448 86.034 125.868 85.95C126.316 85.866 126.582 85.67 126.666 85.362C126.778 85.026 126.834 84.494 126.834 83.766V61.212C126.834 60.372 126.778 59.77 126.666 59.406C126.554 59.042 126.288 58.804 125.868 58.692C125.448 58.552 124.748 58.454 123.768 58.398C123.74 58.118 123.74 57.838 123.768 57.558C124.188 57.558 124.692 57.572 125.28 57.6C125.896 57.6 126.498 57.614 127.086 57.642C127.674 57.642 128.15 57.642 128.514 57.642C128.906 57.642 129.466 57.642 130.194 57.642C130.922 57.614 131.65 57.6 132.378 57.6C133.134 57.572 133.68 57.558 134.016 57.558C135.64 57.558 137.138 57.796 138.51 58.272C139.91 58.748 141.03 59.546 141.87 60.666C142.738 61.758 143.172 63.27 143.172 65.202C143.172 67.134 142.724 68.744 141.828 70.032C140.932 71.32 139.714 72.286 138.174 72.93C136.634 73.574 134.884 73.896 132.924 73.896ZM130.194 72.384C130.642 72.496 131.048 72.566 131.412 72.594C131.804 72.622 132.126 72.636 132.378 72.636C134.702 72.636 136.466 71.992 137.67 70.704C138.902 69.416 139.518 67.666 139.518 65.454C139.518 63.382 138.944 61.758 137.796 60.582C136.648 59.378 134.912 58.776 132.588 58.776C132.28 58.776 131.902 58.79 131.454 58.818C131.006 58.818 130.586 58.846 130.194 58.902V72.384ZM156.177 60.834V83.388C156.177 84.228 156.219 84.844 156.303 85.236C156.387 85.6 156.639 85.838 157.059 85.95C157.479 86.034 158.193 86.118 159.201 86.202C159.229 86.482 159.229 86.762 159.201 87.042C158.585 87.042 157.787 87.028 156.807 87C155.827 86.972 155.057 86.958 154.497 86.958C153.881 86.958 153.097 86.972 152.145 87C151.193 87.028 150.395 87.042 149.751 87.042C149.723 86.762 149.723 86.482 149.751 86.202C150.731 86.118 151.431 86.034 151.851 85.95C152.299 85.866 152.565 85.67 152.649 85.362C152.761 85.026 152.817 84.494 152.817 83.766V61.212C152.817 60.372 152.761 59.77 152.649 59.406C152.537 59.042 152.271 58.804 151.851 58.692C151.431 58.552 150.731 58.454 149.751 58.398C149.723 58.118 149.723 57.838 149.751 57.558C150.171 57.558 150.675 57.572 151.263 57.6C151.879 57.6 152.481 57.614 153.069 57.642C153.657 57.642 154.147 57.642 154.539 57.642C154.931 57.642 155.407 57.642 155.967 57.642C156.555 57.614 157.143 57.6 157.731 57.6C158.319 57.572 158.809 57.558 159.201 57.558C159.229 57.838 159.229 58.118 159.201 58.398C158.221 58.482 157.521 58.566 157.101 58.65C156.681 58.734 156.415 58.93 156.303 59.238C156.219 59.546 156.177 60.078 156.177 60.834ZM167.818 87.042C167.79 86.762 167.79 86.482 167.818 86.202C168.798 86.118 169.498 86.034 169.918 85.95C170.366 85.866 170.632 85.67 170.716 85.362C170.828 85.026 170.884 84.494 170.884 83.766V61.212C170.884 60.372 170.828 59.77 170.716 59.406C170.604 59.042 170.338 58.804 169.918 58.692C169.526 58.552 168.854 58.454 167.902 58.398C167.874 58.118 167.874 57.838 167.902 57.558C168.574 57.558 169.106 57.572 169.498 57.6C169.918 57.6 170.436 57.614 171.052 57.642C171.668 57.642 172.592 57.642 173.824 57.642C174.972 57.642 176.232 57.642 177.604 57.642C178.976 57.614 180.278 57.6 181.51 57.6C182.77 57.6 183.806 57.6 184.618 57.6C185.43 57.572 185.85 57.558 185.878 57.558C185.99 58.342 186.102 59.154 186.214 59.994C186.326 60.834 186.466 61.716 186.634 62.64C186.326 62.668 186.046 62.668 185.794 62.64C185.514 61.856 185.248 61.254 184.996 60.834C184.744 60.414 184.45 60.064 184.114 59.784C183.414 59.196 182.252 58.902 180.628 58.902H174.244V71.586H179.074C180.054 71.586 180.782 71.53 181.258 71.418C181.734 71.306 182.07 71.026 182.266 70.578C182.462 70.102 182.63 69.346 182.77 68.31C183.078 68.282 183.372 68.282 183.652 68.31C183.652 68.506 183.638 68.996 183.61 69.78C183.582 70.536 183.568 71.39 183.568 72.342C183.568 73.21 183.582 74.064 183.61 74.904C183.638 75.716 183.652 76.248 183.652 76.5C183.4 76.528 183.106 76.528 182.77 76.5C182.658 75.324 182.504 74.498 182.308 74.022C182.112 73.518 181.79 73.21 181.342 73.098C180.894 72.986 180.222 72.93 179.326 72.93H174.244V83.388C174.244 84.004 174.258 84.494 174.286 84.858C174.342 85.194 174.468 85.46 174.664 85.656C174.86 85.852 175.168 85.978 175.588 86.034C176.008 86.09 176.652 86.146 177.52 86.202C177.548 86.482 177.548 86.762 177.52 87.042C177.1 87.042 176.568 87.028 175.924 87C175.308 87 174.678 87 174.034 87C173.418 86.972 172.914 86.958 172.522 86.958C171.906 86.958 171.122 86.972 170.17 87C169.246 87.028 168.462 87.042 167.818 87.042ZM211.153 61.716L204.139 74.148V83.388C204.139 84.228 204.181 84.844 204.265 85.236C204.377 85.6 204.657 85.838 205.105 85.95C205.553 86.034 206.295 86.118 207.331 86.202C207.359 86.482 207.359 86.762 207.331 87.042C206.911 87.042 206.393 87.028 205.777 87C205.161 87 204.545 87 203.929 87C203.341 86.972 202.851 86.958 202.459 86.958C202.067 86.958 201.563 86.972 200.947 87C200.359 87 199.757 87 199.141 87C198.525 87.028 198.007 87.042 197.587 87.042C197.559 86.762 197.559 86.482 197.587 86.202C198.623 86.118 199.351 86.034 199.771 85.95C200.219 85.838 200.499 85.628 200.611 85.32C200.723 85.012 200.779 84.494 200.779 83.766V74.442L193.597 61.506C193.093 60.582 192.687 59.924 192.379 59.532C192.099 59.112 191.749 58.832 191.329 58.692C190.937 58.552 190.321 58.454 189.481 58.398C189.453 58.118 189.453 57.838 189.481 57.558C190.209 57.558 190.993 57.572 191.833 57.6C192.701 57.628 193.513 57.642 194.269 57.642C194.913 57.642 195.627 57.628 196.411 57.6C197.223 57.572 197.993 57.558 198.721 57.558C198.749 57.838 198.749 58.118 198.721 58.398C197.853 58.426 197.237 58.51 196.873 58.65C196.509 58.762 196.327 58.972 196.327 59.28C196.327 59.532 196.523 60.008 196.915 60.708L203.467 72.594L210.019 60.708C210.215 60.372 210.355 60.106 210.439 59.91C210.551 59.686 210.607 59.504 210.607 59.364C210.607 59.056 210.383 58.846 209.935 58.734C209.515 58.594 208.801 58.482 207.793 58.398C207.765 58.118 207.765 57.838 207.793 57.558C208.297 57.558 208.969 57.572 209.809 57.6C210.649 57.628 211.321 57.642 211.825 57.642C212.469 57.642 213.099 57.628 213.715 57.6C214.359 57.572 214.989 57.558 215.605 57.558C215.633 57.838 215.633 58.118 215.605 58.398C214.765 58.454 214.121 58.552 213.673 58.692C213.225 58.832 212.833 59.126 212.497 59.574C212.161 60.022 211.713 60.736 211.153 61.716Z" fill="black"/>
<path d="M224.424 11.8981L228.861 26.1116L228.877 26.1625L228.928 26.1777L243.497 30.5011L228.928 34.8244L228.877 34.8396L228.861 34.8905L224.424 49.1041L219.987 34.8905L219.971 34.8396L219.92 34.8244L205.351 30.5011L219.92 26.1777L219.971 26.1625L219.987 26.1116L224.424 11.8981Z" fill="black" stroke="#A5A0A0" stroke-width="0.2"/>
<path d="M243.03 26.8789L245.759 18.789L245.775 18.7411L245.824 18.7257L254.112 16.0679L245.824 13.4101L245.775 13.3947L245.759 13.3468L243.03 5.25684L240.302 13.3468L240.285 13.3947L240.237 13.4101L231.949 16.0679L240.237 18.7257L240.285 18.7411L240.302 18.789L243.03 26.8789Z" fill="black" stroke="#A5A0A0" stroke-width="0.2"/>
<path d="M227.818 12.101L229.564 7.93298L229.58 7.89423L229.619 7.8787L233.886 6.17995L229.619 4.48121L229.58 4.46567L229.564 4.42692L227.818 0.258895L226.073 4.42692L226.057 4.46567L226.018 4.48121L221.75 6.17995L226.018 7.8787L226.057 7.89423L226.073 7.93298L227.818 12.101Z" fill="black" stroke="#A5A0A0" stroke-width="0.2"/>
</svg>
