<svg width="275" height="112" viewBox="0 0 275 112" fill="none" xmlns="http://www.w3.org/2000/svg">
<path d="M7.83362 94.032C7.73762 93.584 7.68962 92.72 7.68962 91.44C7.68962 90.16 7.92962 88.8 8.40962 87.36H8.84162C8.80962 87.712 8.79362 88.064 8.79362 88.416C8.79362 90.368 9.38562 92 10.5696 93.312C11.7536 94.592 13.3216 95.232 15.2736 95.232C17.2896 95.232 18.9376 94.624 20.2176 93.408C21.5296 92.192 22.1856 90.672 22.1856 88.848C22.1856 86.992 21.5616 85.488 20.3136 84.336L11.0976 75.792C9.36962 74.192 8.50562 72.256 8.50562 69.984C8.50562 67.712 9.25762 65.776 10.7616 64.176C12.2976 62.544 14.3616 61.728 16.9536 61.728C18.1696 61.728 19.5456 61.888 21.0816 62.208H22.9536V68.112H22.5216C22.5216 66.608 21.9936 65.408 20.9376 64.512C19.9136 63.616 18.5856 63.168 16.9536 63.168C15.3216 63.168 13.9456 63.712 12.8256 64.8C11.7376 65.888 11.1936 67.248 11.1936 68.88C11.1936 70.512 11.8336 71.92 13.1136 73.104L22.5696 81.84C24.1696 83.312 24.9696 85.328 24.9696 87.888C24.9696 90.448 24.1536 92.56 22.5216 94.224C20.8896 95.856 18.7136 96.672 15.9936 96.672C14.5856 96.672 13.0816 96.448 11.4816 96C9.91362 95.584 8.69762 94.928 7.83362 94.032ZM54.9498 95.52C55.7817 95.52 56.4857 95.232 57.0617 94.656C57.6697 94.048 57.9897 93.344 58.0217 92.544V80.112H38.3897V92.544C38.3897 93.376 38.6937 94.08 39.3017 94.656C39.9097 95.232 40.6297 95.52 41.4617 95.52H42.0857V96H31.5737V95.52H32.1977C33.0297 95.52 33.7337 95.232 34.3097 94.656C34.9177 94.08 35.2377 93.376 35.2697 92.544V65.856C35.2377 65.024 34.9177 64.32 34.3097 63.744C33.7337 63.168 33.0297 62.88 32.1977 62.88H31.5737V62.4H42.0857V62.88H41.4617C40.6297 62.88 39.9097 63.168 39.3017 63.744C38.7257 64.32 38.4217 65.024 38.3897 65.856V78.672H58.0217V65.856C57.9897 64.704 57.4777 63.84 56.4858 63.264C56.0057 63.008 55.4937 62.88 54.9498 62.88H54.3258V62.4H64.8377V62.88H64.2137C63.3818 62.88 62.6618 63.184 62.0538 63.792C61.4778 64.368 61.1738 65.072 61.1418 65.904V92.544C61.1738 93.376 61.4778 94.08 62.0538 94.656C62.6618 95.232 63.3818 95.52 64.2137 95.52H64.8377V96H54.3258V95.52H54.9498ZM103.069 95.52H103.453V96H92.6526V95.52H93.0846C93.7566 95.52 94.2526 95.312 94.5726 94.896C94.9246 94.448 95.1006 94.032 95.1006 93.648C95.1006 93.264 95.0366 92.88 94.9086 92.496L91.8366 84.336H78.8766L75.6606 92.544C75.5326 92.928 75.4686 93.312 75.4686 93.696C75.4686 94.048 75.6286 94.448 75.9486 94.896C76.3006 95.312 76.8126 95.52 77.4846 95.52H77.9166V96H68.2686V95.52H68.7006C69.5006 95.52 70.2846 95.264 71.0526 94.752C71.8206 94.24 72.4446 93.488 72.9246 92.496L83.7726 66.672C84.9566 64.08 85.5486 62.432 85.5486 61.728H85.9806L98.8446 92.496C99.2926 93.488 99.9006 94.24 100.669 94.752C101.437 95.264 102.237 95.52 103.069 95.52ZM79.4526 82.896H91.2606L85.5006 67.488L79.4526 82.896ZM116.6 63.888H113.528V92.496C113.528 93.328 113.816 94.048 114.392 94.656C115 95.232 115.736 95.52 116.6 95.52H117.176L117.224 96H106.712V95.52H107.336C108.168 95.52 108.872 95.232 109.448 94.656C110.056 94.08 110.376 93.376 110.408 92.544V65.904C110.376 65.072 110.056 64.368 109.448 63.792C108.872 63.184 108.168 62.88 107.336 62.88H106.712V62.4H119.672C122.584 62.4 124.872 63.216 126.536 64.848C128.2 66.448 129.032 68.544 129.032 71.136C129.032 73.696 128.232 75.92 126.632 77.808C125.064 79.664 123.144 80.592 120.872 80.592C121.352 80.816 121.912 81.264 122.552 81.936C123.224 82.576 123.816 83.248 124.328 83.952C127.08 87.888 128.872 90.32 129.704 91.248C130.536 92.144 131.128 92.768 131.48 93.12C131.832 93.44 132.216 93.76 132.632 94.08C133.048 94.4 133.464 94.656 133.88 94.848C134.808 95.296 135.8 95.52 136.856 95.52V96H134.216C132.84 96 131.56 95.76 130.376 95.28C129.192 94.768 128.296 94.256 127.688 93.744C127.112 93.2 126.6 92.688 126.152 92.208C125.736 91.696 124.552 90.032 122.6 87.216C120.648 84.4 119.512 82.8 119.192 82.416C118.872 82 118.536 81.6 118.184 81.216C117.16 80.128 116.136 79.584 115.112 79.584V79.104C115.368 79.136 115.704 79.152 116.12 79.152C116.536 79.152 117.048 79.136 117.656 79.104C121.624 79.008 124.12 77.344 125.144 74.112C125.336 73.472 125.432 72.88 125.432 72.336C125.432 71.76 125.432 71.392 125.432 71.232C125.368 69.088 124.808 67.36 123.752 66.048C122.696 64.736 121.272 64.032 119.48 63.936C118.712 63.904 117.752 63.888 116.6 63.888ZM161.12 71.664C161.12 73.072 160.832 74.384 160.256 75.6C159.2 77.872 157.344 79.456 154.688 80.352C153.76 80.672 152.96 80.832 152.288 80.832C150.304 80.832 148.592 80.464 147.152 79.728V79.248C149.488 79.76 151.648 79.504 153.632 78.48C155.392 77.584 156.592 76.112 157.232 74.064C157.424 73.424 157.52 72.816 157.52 72.24C157.52 71.664 157.52 71.312 157.52 71.184C157.456 68.944 156.864 67.168 155.744 65.856C154.624 64.512 153.056 63.84 151.04 63.84H145.52V92.496C145.552 93.328 145.856 94.048 146.432 94.656C147.04 95.232 147.76 95.52 148.592 95.52H149.216V96H138.704V95.52H139.328C140.16 95.52 140.864 95.232 141.44 94.656C142.048 94.048 142.368 93.328 142.4 92.496V65.664C142.304 64.864 141.968 64.208 141.392 63.696C140.816 63.152 140.128 62.88 139.328 62.88H138.752L138.704 62.4H151.232C154.304 62.4 156.72 63.232 158.48 64.896C160.24 66.528 161.12 68.784 161.12 71.664ZM167.757 95.52C168.589 95.52 169.293 95.232 169.869 94.656C170.477 94.048 170.797 93.328 170.829 92.496V65.856C170.797 65.024 170.477 64.32 169.869 63.744C169.293 63.168 168.589 62.88 167.757 62.88H167.133V62.4H177.645V62.88H177.021C176.189 62.88 175.469 63.168 174.861 63.744C174.285 64.32 173.981 65.024 173.949 65.856V92.496C173.949 93.328 174.253 94.048 174.861 94.656C175.469 95.232 176.189 95.52 177.021 95.52H177.645V96H167.133V95.52H167.757ZM204.087 62.928V66.96H203.607V66.24C203.607 65.6 203.383 65.056 202.935 64.608C202.487 64.128 201.927 63.888 201.255 63.888H191.127V78.72H199.239C199.879 78.688 200.423 78.448 200.871 78C201.319 77.552 201.543 77.008 201.543 76.368V75.648H202.023V83.232H201.543V82.512C201.543 81.872 201.319 81.328 200.871 80.88C200.455 80.432 199.927 80.192 199.287 80.16H191.127V92.496C191.127 93.328 191.431 94.048 192.039 94.656C192.647 95.232 193.367 95.52 194.199 95.52H194.823V96H184.311V95.52H184.935C185.767 95.52 186.471 95.232 187.047 94.656C187.655 94.048 187.975 93.328 188.007 92.496V65.616C188.007 64.848 187.687 64.208 187.047 63.696C186.439 63.152 185.735 62.88 184.935 62.88H184.359L184.311 62.4H198.375C199.367 62.4 200.439 62.304 201.591 62.112C202.775 61.92 203.607 61.728 204.087 61.536V62.928ZM240.664 62.88H239.992C239.032 62.88 238.12 63.152 237.256 63.696C236.424 64.208 235.72 64.864 235.144 65.664L225.688 81.024V92.496C225.688 93.328 225.976 94.048 226.552 94.656C227.16 95.232 227.896 95.52 228.76 95.52H229.336V96H218.872V95.52H219.496C220.328 95.52 221.032 95.232 221.608 94.656C222.216 94.08 222.536 93.376 222.568 92.544V80.976L213.4 65.664C212.92 64.896 212.232 64.24 211.336 63.696C210.472 63.152 209.56 62.88 208.6 62.88H207.928V62.4H219.736V62.88H219.112C218.408 62.88 217.864 63.2 217.48 63.84C217.288 64.192 217.192 64.544 217.192 64.896C217.192 65.216 217.272 65.536 217.432 65.856L224.632 79.296L232.312 65.808C232.472 65.488 232.552 65.168 232.552 64.848C232.552 64.528 232.44 64.192 232.216 63.84C231.832 63.2 231.288 62.88 230.584 62.88H230.008V62.4H240.664V62.88Z" fill="#FFFDFD"/>
<path d="M238.398 13.3356L243.062 28.2768L243.078 28.3277L243.129 28.3429L258.444 32.8877L243.129 37.4326L243.078 37.4477L243.062 37.4986L238.398 52.4399L233.733 37.4986L233.718 37.4477L233.666 37.4326L218.351 32.8877L233.666 28.3429L233.718 28.3277L233.733 28.2768L238.398 13.3356Z" fill="#FFFDFD" stroke="#A5A0A0" stroke-width="0.2"/>
<path d="M262.981 33.05L265.851 24.5405L265.867 24.4926L265.916 24.4772L274.634 21.6814L265.916 18.8856L265.867 18.8702L265.851 18.8224L262.981 10.3129L260.111 18.8224L260.094 18.8702L260.046 18.8856L251.327 21.6814L260.046 24.4772L260.094 24.4926L260.111 24.5405L262.981 33.05Z" fill="#FFFDFD" stroke="#A5A0A0" stroke-width="0.2"/>
<path d="M244.656 12.7205L246.494 8.3325L246.51 8.29376L246.549 8.27822L251.042 6.48968L246.549 4.70114L246.51 4.68561L246.494 4.64686L244.656 0.2589L242.819 4.64686L242.802 4.68561L242.763 4.70114L238.27 6.48968L242.763 8.27822L242.802 8.29376L242.819 8.3325L244.656 12.7205Z" fill="#FFFDFD" stroke="#A5A0A0" stroke-width="0.2"/>
</svg>
