<svg width="288" height="114" viewBox="0 0 288 114" fill="none" xmlns="http://www.w3.org/2000/svg">
<path d="M185.108 28.368V28.32L204.356 4.032H204.404V24.816H208.484V28.368H204.404V36H199.748V28.368H185.108ZM200.036 14.544L191.924 25.056L191.204 24.816H199.748V13.68L200.036 14.544ZM228.556 0.239997C226.316 6.352 224.076 12.464 221.836 18.576C219.596 24.688 217.34 30.8 215.068 36.912H210.988C213.26 30.8 215.516 24.688 217.756 18.576C219.996 12.464 222.252 6.352 224.524 0.239997H228.556Z" fill="#444545"/>
<path d="M241.34 36.384C239.644 36.384 238.012 36.08 236.444 35.472C234.908 34.864 233.66 34.08 232.7 33.12L235.196 29.52C235.836 30.256 236.684 30.848 237.74 31.296C238.828 31.744 239.9 31.968 240.956 31.968C242.14 31.968 243.18 31.712 244.076 31.2C245.004 30.656 245.724 29.936 246.236 29.04C246.748 28.112 247.004 27.056 247.004 25.872C247.004 24.592 246.764 23.456 246.284 22.464C245.836 21.472 245.148 20.704 244.22 20.16C243.324 19.584 242.188 19.296 240.812 19.296C239.692 19.296 238.652 19.456 237.692 19.776C236.732 20.064 235.74 20.512 234.716 21.12H234.668V4.416H249.788V8.88H238.7V16.944L238.076 15.984C238.62 15.792 239.228 15.648 239.9 15.552C240.604 15.424 241.276 15.36 241.916 15.36C244.06 15.36 245.852 15.84 247.292 16.8C248.764 17.728 249.868 18.976 250.604 20.544C251.372 22.112 251.756 23.84 251.756 25.728C251.756 27.712 251.308 29.52 250.412 31.152C249.516 32.752 248.284 34.032 246.716 34.992C245.148 35.92 243.356 36.384 241.34 36.384Z" fill="black"/>
<path d="M15.3737 6L18.8253 16.3647H29.9949L20.9585 22.7705L24.4101 33.1353L15.3737 26.7295L6.33725 33.1353L9.78885 22.7705L0.75244 16.3647H11.9221L15.3737 6Z" fill="black"/>
<path d="M150.662 6L154.114 16.3647H165.283L156.247 22.7705L159.698 33.1353L150.662 26.7295L141.626 33.1353L145.077 22.7705L136.041 16.3647H147.21L150.662 6Z" fill="black"/>
<path d="M105.566 6L109.017 16.3647H120.187L111.151 22.7705L114.602 33.1353L105.566 26.7295L96.5294 33.1353L99.981 22.7705L90.9446 16.3647H102.114L105.566 6Z" fill="black"/>
<path d="M60.4697 6L63.9213 16.3647H75.091L66.0545 22.7705L69.5061 33.1353L60.4697 26.7295L51.4333 33.1353L54.8849 22.7705L45.8485 16.3647H57.0181L60.4697 6Z" fill="black"/>
</svg>
