<svg width="481" height="94" viewBox="0 0 481 94" fill="none" xmlns="http://www.w3.org/2000/svg">
<path d="M30.5938 77.0312C24.0312 77.0312 18.75 76.8125 14.75 76.375C10.7812 75.9375 7.76562 75.125 5.70312 73.9375C3.67188 72.75 2.29688 71.0625 1.57812 68.875C0.890625 66.6875 0.546875 63.8438 0.546875 60.3438H9.17188C9.17188 62.3125 9.3125 63.9062 9.59375 65.125C9.875 66.3125 10.6719 67.2344 11.9844 67.8906C13.2969 68.5156 15.4219 68.9531 18.3594 69.2031C21.3281 69.4219 25.4844 69.5312 30.8281 69.5312C36.4844 69.5312 40.875 69.4219 44 69.2031C47.1562 68.9531 49.4219 68.5156 50.7969 67.8906C52.1719 67.2344 53 66.2969 53.2812 65.0781C53.5938 63.8594 53.75 62.25 53.75 60.25C53.75 57.8125 53.5312 55.9844 53.0938 54.7656C52.6562 53.5469 51.625 52.7344 50 52.3281C48.375 51.8906 45.7812 51.6562 42.2188 51.625L20.75 51.3906C15.2188 51.3281 11 50.8594 8.09375 49.9844C5.1875 49.1094 3.20312 47.5781 2.14062 45.3906C1.07812 43.1719 0.546875 40.0312 0.546875 35.9688C0.546875 32.1875 1.125 29.2656 2.28125 27.2031C3.46875 25.1406 5.3125 23.6719 7.8125 22.7969C10.3125 21.9219 13.5625 21.4062 17.5625 21.25C21.5625 21.0625 26.3906 20.9688 32.0469 20.9688C38.7031 20.9688 43.9844 21.1719 47.8906 21.5781C51.8281 21.9844 54.7656 22.75 56.7031 23.875C58.6719 25 59.9531 26.6406 60.5469 28.7969C61.1719 30.9219 61.4844 33.7031 61.4844 37.1406H52.8594C52.8594 35.1094 52.7188 33.5156 52.4375 32.3594C52.1562 31.1719 51.3906 30.3125 50.1406 29.7812C48.9219 29.2188 46.9219 28.8594 44.1406 28.7031C41.3906 28.5469 37.5156 28.4688 32.5156 28.4688C26.8281 28.4688 22.4062 28.5312 19.25 28.6562C16.0938 28.7812 13.8125 29.0781 12.4062 29.5469C11 30.0156 10.1406 30.7656 9.82812 31.7969C9.51562 32.7969 9.35938 34.1875 9.35938 35.9688C9.35938 37.7812 9.45312 39.2188 9.64062 40.2812C9.85938 41.3125 10.4062 42.0938 11.2812 42.625C12.1562 43.1562 13.5781 43.5156 15.5469 43.7031C17.5469 43.8594 20.3281 43.9531 23.8906 43.9844L42.4062 44.1719C47.9688 44.2344 52.1875 44.7031 55.0625 45.5781C57.9688 46.4219 59.9375 48 60.9688 50.3125C62.0312 52.5938 62.5625 55.9062 62.5625 60.25C62.5625 64.1562 61.9844 67.2344 60.8281 69.4844C59.7031 71.7344 57.8906 73.4062 55.3906 74.5C52.8906 75.5625 49.5938 76.25 45.5 76.5625C41.4375 76.875 36.4688 77.0312 30.5938 77.0312ZM74.7969 76V4H83.7969V29.1719C85.1406 27.3594 86.7969 25.8438 88.7656 24.625C90.7656 23.4062 93.4219 22.5 96.7344 21.9062C100.078 21.2812 104.453 20.9688 109.859 20.9688C116.922 20.9688 122.484 21.6562 126.547 23.0312C130.641 24.4062 133.547 26.8594 135.266 30.3906C136.984 33.9219 137.844 38.9219 137.844 45.3906V76H128.797V45.3906C128.797 41.7031 128.484 38.7344 127.859 36.4844C127.234 34.2344 126.156 32.5312 124.625 31.375C123.125 30.2188 121.047 29.4531 118.391 29.0781C115.734 28.6719 112.359 28.4688 108.266 28.4688C102.016 28.4688 97.1094 28.9844 93.5469 30.0156C89.9844 31.0469 87.4688 32.6719 86 34.8906C84.5312 37.0781 83.7969 39.9375 83.7969 43.4688V76H74.7969ZM178.297 77.0312C171.828 77.0312 166.484 76.6875 162.266 76C158.078 75.3438 154.953 73.875 152.891 71.5938C150.859 69.3125 149.844 65.7656 149.844 60.9531C149.844 56.0469 150.797 52.4531 152.703 50.1719C154.641 47.8594 157.688 46.3594 161.844 45.6719C166.031 44.9844 171.516 44.6406 178.297 44.6406C183.797 44.6406 188.406 44.7656 192.125 45.0156C195.844 45.2656 199.172 45.7031 202.109 46.3281C202.047 42.1719 201.766 38.9062 201.266 36.5312C200.766 34.125 199.828 32.3438 198.453 31.1875C197.078 30.0312 195.062 29.2969 192.406 28.9844C189.781 28.6406 186.281 28.4688 181.906 28.4688C176.906 28.4688 172.984 28.5781 170.141 28.7969C167.328 29.0156 165.281 29.4062 164 29.9688C162.719 30.5312 161.906 31.3438 161.562 32.4062C161.25 33.4688 161.094 34.8438 161.094 36.5312H152.094C152.094 33.1562 152.547 30.4375 153.453 28.375C154.391 26.3125 155.969 24.75 158.188 23.6875C160.406 22.625 163.438 21.9062 167.281 21.5312C171.156 21.1562 176.031 20.9688 181.906 20.9688C188.219 20.9688 193.297 21.375 197.141 22.1875C201.016 23 203.953 24.4688 205.953 26.5938C207.984 28.6875 209.344 31.625 210.031 35.4062C210.75 39.1875 211.109 44.0625 211.109 50.0312V76H202.109V72.2969C201.047 73.4219 199.578 74.3281 197.703 75.0156C195.828 75.7031 193.328 76.2031 190.203 76.5156C187.109 76.8594 183.141 77.0312 178.297 77.0312ZM178.297 69.7188C183.641 69.7188 187.906 69.6562 191.094 69.5312C194.281 69.4062 196.656 69.0625 198.219 68.5C199.812 67.9375 200.859 67.0312 201.359 65.7812C201.859 64.5312 202.109 62.7812 202.109 60.5312V52.2344L178.297 51.9531C174.078 51.8906 170.672 51.9531 168.078 52.1406C165.516 52.2969 163.562 52.6719 162.219 53.2656C160.875 53.8281 159.969 54.7344 159.5 55.9844C159.062 57.2031 158.844 58.8594 158.844 60.9531C158.844 62.9844 159.062 64.5938 159.5 65.7812C159.969 66.9688 160.875 67.8438 162.219 68.4062C163.562 68.9688 165.516 69.3281 168.078 69.4844C170.672 69.6406 174.078 69.7188 178.297 69.7188ZM223.859 76V22H232.859V29.4531C233.859 27.8594 234.859 26.5312 235.859 25.4688C236.891 24.4062 238.219 23.5625 239.844 22.9375C241.5 22.3125 243.734 21.875 246.547 21.625C249.359 21.3438 253.062 21.2031 257.656 21.2031V28.75C251.469 28.75 246.672 28.9688 243.266 29.4062C239.891 29.8438 237.469 30.5938 236 31.6562C234.531 32.6875 233.641 34.125 233.328 35.9688C233.016 37.8125 232.859 40.1562 232.859 43V76H223.859ZM326.422 48.7188C326.422 44.25 326.188 40.6719 325.719 37.9844C325.281 35.2969 324.297 33.2812 322.766 31.9375C321.234 30.5625 318.844 29.6406 315.594 29.1719C312.375 28.7031 307.969 28.4688 302.375 28.4688C297.281 28.4688 293.156 28.7031 290 29.1719C286.844 29.6406 284.422 30.5625 282.734 31.9375C281.047 33.2812 279.891 35.2969 279.266 37.9844C278.641 40.6719 278.328 44.25 278.328 48.7188C278.328 53.3438 278.641 57.0469 279.266 59.8281C279.891 62.6094 281.047 64.7031 282.734 66.1094C284.422 67.4844 286.844 68.4062 290 68.875C293.156 69.3125 297.281 69.5312 302.375 69.5312C307.969 69.5312 312.375 69.3125 315.594 68.875C318.844 68.4062 321.234 67.4844 322.766 66.1094C324.297 64.7031 325.281 62.6094 325.719 59.8281C326.188 57.0469 326.422 53.3438 326.422 48.7188ZM269.328 94V22H278.328V28.1406C280.609 25.1094 283.734 23.1562 287.703 22.2812C291.703 21.4062 296.594 20.9688 302.375 20.9688C308.438 20.9688 313.562 21.2812 317.75 21.9062C321.969 22.5312 325.375 23.7812 327.969 25.6562C330.562 27.5312 332.453 30.3125 333.641 34C334.828 37.6875 335.422 42.5938 335.422 48.7188C335.422 55.0312 334.828 60.0781 333.641 63.8594C332.453 67.6406 330.562 70.4844 327.969 72.3906C325.375 74.2656 321.969 75.5 317.75 76.0938C313.562 76.7188 308.438 77.0312 302.375 77.0312C296.594 77.0312 291.703 76.5938 287.703 75.7188C283.734 74.8438 280.609 72.875 278.328 69.8125V94H269.328ZM345.922 76V25H354.922V76H345.922ZM345.922 13V4H354.922V13H345.922ZM375.922 76V28.8438H366.922V22H375.922V19.6562C375.922 14.5312 376.75 10.5938 378.406 7.84375C380.094 5.09375 382.703 3.20312 386.234 2.17188C389.797 1.14062 394.375 0.625 399.969 0.625H410.422V7.9375H399.922C395.453 7.9375 392.156 8.21875 390.031 8.78125C387.906 9.34375 386.516 10.4688 385.859 12.1562C385.234 13.8125 384.922 16.3125 384.922 19.6562V22H410.422V28.8438H384.922V76H375.922ZM424.859 94V86.5C428.078 86.5 430.734 86.4219 432.828 86.2656C434.953 86.1406 436.719 85.75 438.125 85.0938C439.562 84.4688 440.844 83.4375 441.969 82C443.125 80.5625 444.328 78.5625 445.578 76H442.578L412.578 22H422.891L448.578 69.2969L470.188 22H480.734L453.359 79C452.141 81.5312 450.875 83.7344 449.562 85.6094C448.281 87.4844 446.656 89.0469 444.688 90.2969C442.75 91.5469 440.203 92.4688 437.047 93.0625C433.891 93.6875 429.828 94 424.859 94Z" fill="white"/>
</svg>
