<svg width="31" height="163" viewBox="0 0 31 163" fill="none" xmlns="http://www.w3.org/2000/svg">
<path fill-rule="evenodd" clip-rule="evenodd" d="M6 49C4.67392 49 3.40215 49.5268 2.46447 50.4645C1.52678 51.4021 1 52.6739 1 54V71.5C1 72.8261 1.52678 74.0979 2.46447 75.0355C3.40215 75.9732 4.67392 76.5 6 76.5H23.5C24.8261 76.5 26.0979 75.9732 27.0355 75.0355C27.9732 74.0979 28.5 72.8261 28.5 71.5V54C28.5 52.6739 27.9732 51.4021 27.0355 50.4645C26.0979 49.5268 24.8261 49 23.5 49H6ZM7.50625 57.6375C8.07149 57.6375 8.61358 57.413 9.01327 57.0133C9.41296 56.6136 9.6375 56.0715 9.6375 55.5062C9.6375 54.941 9.41296 54.3989 9.01327 53.9992C8.61358 53.5995 8.07149 53.375 7.50625 53.375C6.94101 53.375 6.39892 53.5995 5.99923 53.9992C5.59954 54.3989 5.375 54.941 5.375 55.5062C5.375 56.0715 5.59954 56.6136 5.99923 57.0133C6.39892 57.413 6.94101 57.6375 7.50625 57.6375ZM9.63625 72.125V59.3412H5.375V72.125H9.63625ZM15.1762 59.3412H11.3412V72.125H15.1762V64.4125C15.67 63.61 16.5225 62.75 17.7325 62.75C19.4375 62.75 19.8638 64.455 19.8638 65.3075V72.125H24.125V65.3075C24.125 63.0225 23.1288 59.3412 19.4375 59.3412C17.09 59.3412 15.7875 60.1975 15.175 61L15.1762 59.3412Z" fill="black"/>
<path d="M14.9999 0C11.4382 0.000130778 7.99261 1.29981 5.27997 3.66624C2.56721 6.03268 0.764267 9.31168 0.193729 12.9165C-0.376809 16.5211 0.322301 20.2164 2.16593 23.3411C4.00943 26.4655 6.8773 28.8156 10.2563 29.9706C11.0063 30.1052 11.2875 29.6438 11.2875 29.2401C11.2875 28.8748 11.2688 27.6637 11.2688 26.3756C7.50001 27.087 6.525 25.4338 6.225 24.5687C5.89209 23.7274 5.36441 22.9818 4.68749 22.3963C4.16249 22.108 3.41249 21.3967 4.66874 21.3774C5.14847 21.4308 5.60842 21.602 6.00995 21.8763C6.41135 22.1507 6.74248 22.5204 6.975 22.9538C7.18011 23.3317 7.456 23.6644 7.78674 23.9327C8.11748 24.2011 8.49669 24.4 8.90256 24.5177C9.30843 24.6355 9.73292 24.6702 10.1518 24.6196C10.5707 24.5689 10.9758 24.4341 11.3436 24.2226C11.4086 23.4407 11.7485 22.7097 12.3 22.1656C8.96251 21.7811 5.475 20.4547 5.475 14.572C5.45395 13.0436 6.00395 11.5647 7.0125 10.4389C6.55396 9.11042 6.60753 7.6525 7.1625 6.36328C7.1625 6.36328 8.41863 5.95957 11.2875 7.93969C13.7419 7.24761 16.3329 7.24761 18.7874 7.93969C21.6562 5.94035 22.9124 6.36328 22.9124 6.36328C23.4674 7.6525 23.5211 9.11042 23.0624 10.4389C24.0738 11.5628 24.6246 13.0431 24.5999 14.572C24.5999 20.4739 21.0937 21.7811 17.7562 22.1656C18.1141 22.5376 18.3897 22.9843 18.5645 23.4751C18.7392 23.9662 18.8088 24.49 18.7687 25.0108C18.7687 27.068 18.7499 28.721 18.7499 29.2401C18.7499 29.6438 19.0312 30.1244 19.7812 29.9706C23.1541 28.8063 26.0137 26.4507 27.8494 23.3246C29.6853 20.1983 30.3776 16.5049 29.8031 12.9036C29.2287 9.30253 27.4247 6.02784 24.7131 3.66428C22.0016 1.30059 18.559 0.00196168 14.9999 0Z" fill="black"/>
<path d="M13.6666 97C15.9569 96.9968 18.1782 97.7829 19.9566 99.226C20.0689 99.317 20.1602 99.4312 20.2241 99.5608C20.288 99.6904 20.3231 99.8323 20.3269 99.9768C20.3307 100.121 20.3031 100.265 20.2461 100.398C20.1891 100.53 20.104 100.649 19.9966 100.746L18.4866 102.108C18.3151 102.262 18.0954 102.353 17.8648 102.364C17.6343 102.375 17.407 102.306 17.2216 102.168C16.2049 101.421 14.9784 101.013 13.7166 101.003C12.4548 100.993 11.2219 101.381 10.1932 102.111C9.16457 102.842 8.3925 103.879 7.98681 105.074C7.58112 106.268 7.56246 107.561 7.93349 108.767C8.30452 109.973 9.04635 111.031 10.0535 111.792C11.0606 112.552 12.2818 112.975 13.5434 113.001C14.8049 113.028 16.0427 112.655 17.0806 111.938C18.1185 111.22 18.9037 110.194 19.3246 109.004L19.3256 109H15.6656C15.4209 109 15.1847 108.91 15.0019 108.747C14.8191 108.584 14.7023 108.36 14.6736 108.117L14.6666 108V106C14.6666 105.735 14.772 105.48 14.9595 105.293C15.1471 105.105 15.4014 105 15.6666 105H22.6116C22.8578 105 23.0953 105.091 23.2788 105.255C23.4622 105.419 23.5785 105.645 23.6056 105.89C23.6456 106.257 23.6666 106.627 23.6666 107C23.6666 112.523 19.1896 117 13.6666 117C8.14363 117 3.66663 112.523 3.66663 107C3.66663 101.477 8.14363 97 13.6666 97Z" fill="black"/>
<path fill-rule="evenodd" clip-rule="evenodd" d="M18.2161 137.236C21.0557 136.504 24.4827 137.513 26.5685 139.734H28.9095C29.2849 139.734 29.6336 139.927 29.8331 140.245C30.0326 140.562 30.0547 140.96 29.8916 141.298L27.5895 146.067C28.2427 151.623 26.0693 156.935 21.6974 160.075C17.2252 163.287 10.6461 164.097 2.84503 160.9C2.43445 160.746 2.07983 160.471 1.8278 160.111C1.57074 159.744 1.43284 159.307 1.43284 158.859C1.43284 158.411 1.57074 157.974 1.8278 157.608C2.08485 157.241 2.44861 156.962 2.86961 156.809C2.89809 156.799 2.92701 156.79 2.95625 156.782C4.15601 156.457 5.30309 155.97 6.36684 155.337C4.25916 154.071 2.53763 152.23 1.41545 150.014C0.0143821 147.246 -0.3611 144.073 0.353986 141.056C0.399456 140.678 0.543139 140.318 0.771529 140.012C1.02086 139.678 1.3607 139.423 1.7508 139.276C2.1409 139.129 2.56493 139.097 2.97263 139.184C3.37996 139.27 3.75398 139.472 4.05046 139.764C7.13075 142.792 9.82588 144.045 11.6919 144.557C12.4154 144.755 13.021 144.845 13.4844 144.881C13.3408 142.961 13.6677 141.361 14.3913 140.096C15.2732 138.554 16.6743 137.633 18.2161 137.236Z" fill="black"/>
</svg>
