<svg width="593" height="147" viewBox="0 0 593 147" fill="none" xmlns="http://www.w3.org/2000/svg">
<path d="M158.4 81.76V72.28H180.96C185.84 72.28 189.6 71.04 192.24 68.56C194.88 66.08 196.2 62.72 196.2 58.48C196.2 54.48 194.88 51.16 192.24 48.52C189.68 45.88 185.96 44.56 181.08 44.56H158.4V34.72H181.44C186.72 34.72 191.32 35.76 195.24 37.84C199.16 39.84 202.16 42.6 204.24 46.12C206.4 49.64 207.48 53.68 207.48 58.24C207.48 62.96 206.4 67.08 204.24 70.6C202.16 74.12 199.16 76.88 195.24 78.88C191.32 80.8 186.72 81.76 181.44 81.76H158.4ZM150.84 118V34.72H162.12V118H150.84ZM198.84 118L168.6 80.68L179.28 76.96L213.12 118H198.84ZM247.39 119.2C241.71 119.2 236.59 117.92 232.03 115.36C227.47 112.72 223.87 109.16 221.23 104.68C218.59 100.2 217.27 95.12 217.27 89.44C217.27 83.84 218.55 78.8 221.11 74.32C223.75 69.84 227.27 66.32 231.67 63.76C236.15 61.12 241.15 59.8 246.67 59.8C251.95 59.8 256.59 61 260.59 63.4C264.67 65.8 267.83 69.12 270.07 73.36C272.39 77.6 273.55 82.4 273.55 87.76C273.55 88.56 273.51 89.44 273.43 90.4C273.35 91.28 273.19 92.32 272.95 93.52H224.83V84.52H267.19L263.23 88C263.23 84.16 262.55 80.92 261.19 78.28C259.83 75.56 257.91 73.48 255.43 72.04C252.95 70.52 249.95 69.76 246.43 69.76C242.75 69.76 239.51 70.56 236.71 72.16C233.91 73.76 231.75 76 230.23 78.88C228.71 81.76 227.95 85.16 227.95 89.08C227.95 93.08 228.75 96.6 230.35 99.64C231.95 102.6 234.23 104.92 237.19 106.6C240.15 108.2 243.55 109 247.39 109C250.59 109 253.51 108.44 256.15 107.32C258.87 106.2 261.19 104.52 263.11 102.28L270.07 109.36C267.35 112.56 263.99 115 259.99 116.68C256.07 118.36 251.87 119.2 247.39 119.2ZM291.728 118V52.48C291.728 48.24 292.648 44.56 294.488 41.44C296.328 38.24 298.848 35.72 302.048 33.88C305.328 32.04 309.128 31.12 313.448 31.12C316.728 31.12 319.568 31.68 321.968 32.8C324.368 33.92 326.568 35.56 328.568 37.72L321.488 44.68C320.448 43.56 319.288 42.72 318.008 42.16C316.728 41.52 315.168 41.2 313.328 41.2C309.888 41.2 307.208 42.2 305.288 44.2C303.448 46.2 302.528 48.96 302.528 52.48V118H291.728ZM277.688 70.84V61H320.648V70.84H277.688ZM348.343 118.48L323.623 61H335.623L353.983 106H350.143L369.463 61H381.463L354.823 118.48H348.343ZM332.023 141.88L348.823 107.44L354.823 118.48L344.023 141.88H332.023ZM430.178 118V84.76C430.178 80.44 428.818 76.88 426.098 74.08C423.378 71.28 419.858 69.88 415.538 69.88C412.658 69.88 410.098 70.52 407.858 71.8C405.618 73.08 403.858 74.84 402.578 77.08C401.298 79.32 400.658 81.88 400.658 84.76L396.218 82.24C396.218 77.92 397.178 74.08 399.098 70.72C401.018 67.36 403.698 64.72 407.138 62.8C410.578 60.8 414.458 59.8 418.778 59.8C423.098 59.8 426.898 60.88 430.178 63.04C433.538 65.2 436.178 68.04 438.098 71.56C440.018 75 440.978 78.68 440.978 82.6V118H430.178ZM389.857 118V61H400.658V118H389.857ZM482 119.2C476.32 119.2 471.2 117.92 466.64 115.36C462.08 112.72 458.48 109.16 455.84 104.68C453.2 100.2 451.88 95.12 451.88 89.44C451.88 83.84 453.16 78.8 455.72 74.32C458.36 69.84 461.88 66.32 466.28 63.76C470.76 61.12 475.76 59.8 481.28 59.8C486.56 59.8 491.2 61 495.2 63.4C499.28 65.8 502.44 69.12 504.68 73.36C507 77.6 508.16 82.4 508.16 87.76C508.16 88.56 508.12 89.44 508.04 90.4C507.96 91.28 507.8 92.32 507.56 93.52H459.44V84.52H501.8L497.84 88C497.84 84.16 497.16 80.92 495.8 78.28C494.44 75.56 492.52 73.48 490.04 72.04C487.56 70.52 484.56 69.76 481.04 69.76C477.36 69.76 474.12 70.56 471.32 72.16C468.52 73.76 466.36 76 464.84 78.88C463.32 81.76 462.56 85.16 462.56 89.08C462.56 93.08 463.36 96.6 464.96 99.64C466.56 102.6 468.84 104.92 471.8 106.6C474.76 108.2 478.16 109 482 109C485.2 109 488.12 108.44 490.76 107.32C493.48 106.2 495.8 104.52 497.72 102.28L504.68 109.36C501.96 112.56 498.6 115 494.6 116.68C490.68 118.36 486.48 119.2 482 119.2ZM544.056 119.2C538.776 119.2 534.056 117.92 529.896 115.36C525.736 112.72 522.416 109.16 519.936 104.68C517.536 100.2 516.336 95.16 516.336 89.56C516.336 83.96 517.536 78.92 519.936 74.44C522.416 69.96 525.736 66.4 529.896 63.76C534.056 61.12 538.776 59.8 544.056 59.8C548.296 59.8 552.136 60.72 555.576 62.56C559.016 64.32 561.776 66.8 563.856 70C566.016 73.12 567.216 76.76 567.456 80.92V98.08C567.216 102.16 566.056 105.8 563.976 109C561.896 112.2 559.136 114.72 555.696 116.56C552.256 118.32 548.376 119.2 544.056 119.2ZM545.856 109C549.456 109 552.576 108.16 555.216 106.48C557.936 104.8 560.056 102.52 561.576 99.64C563.096 96.68 563.856 93.32 563.856 89.56C563.856 85.64 563.056 82.24 561.456 79.36C559.936 76.48 557.816 74.2 555.096 72.52C552.456 70.84 549.336 70 545.736 70C542.136 70 538.976 70.84 536.256 72.52C533.536 74.2 531.376 76.52 529.776 79.48C528.256 82.36 527.496 85.68 527.496 89.44C527.496 93.28 528.256 96.68 529.776 99.64C531.376 102.52 533.536 104.8 536.256 106.48C539.056 108.16 542.256 109 545.856 109ZM574.056 118H563.136V102.64L565.176 88.72L563.136 74.92V32.32H574.056V118Z" fill="#22C55E"/>
<path d="M48.3496 29.9297C57.2738 21.6842 71.7428 21.6843 80.667 29.9297L112.638 59.4686C121.562 67.714 121.562 81.0825 112.638 89.328L64.2881 134L16.1589 89.5314C7.23464 81.286 7.23462 67.9175 16.1588 59.672L48.3496 29.9297Z" fill="url(#paint0_linear_144_7)"/>
<rect x="54" y="49" width="20" height="20" rx="10" fill="white"/>
<defs>
<linearGradient id="paint0_linear_144_7" x1="64.7964" y1="117" x2="64.1165" y2="31.9991" gradientUnits="userSpaceOnUse">
<stop offset="0.0817308" stop-color="#22C55E"/>
<stop offset="1" stop-color="#FF9900"/>
</linearGradient>
</defs>
</svg>
